<svg width="1200" height="628" viewBox="0 0 1200 628" fill="none" xmlns="http://www.w3.org/2000/svg">
  <!-- Background -->
  <rect width="1200" height="628" fill="#09090B"/>
  
  <!-- Grid Pattern -->
  <path d="M0 32H1200" stroke="#27272A" stroke-width="1" stroke-opacity="0.2"/>
  <path d="M0 96H1200" stroke="#27272A" stroke-width="1" stroke-opacity="0.2"/>
  <path d="M0 160H1200" stroke="#27272A" stroke-width="1" stroke-opacity="0.2"/>
  <path d="M0 224H1200" stroke="#27272A" stroke-width="1" stroke-opacity="0.2"/>
  <path d="M0 288H1200" stroke="#27272A" stroke-width="1" stroke-opacity="0.2"/>
  <path d="M0 352H1200" stroke="#27272A" stroke-width="1" stroke-opacity="0.2"/>
  <path d="M0 416H1200" stroke="#27272A" stroke-width="1" stroke-opacity="0.2"/>
  <path d="M0 480H1200" stroke="#27272A" stroke-width="1" stroke-opacity="0.2"/>
  <path d="M0 544H1200" stroke="#27272A" stroke-width="1" stroke-opacity="0.2"/>
  <path d="M0 608H1200" stroke="#27272A" stroke-width="1" stroke-opacity="0.2"/>
  
  <path d="M64 0V628" stroke="#27272A" stroke-width="1" stroke-opacity="0.2"/>
  <path d="M128 0V628" stroke="#27272A" stroke-width="1" stroke-opacity="0.2"/>
  <path d="M192 0V628" stroke="#27272A" stroke-width="1" stroke-opacity="0.2"/>
  <path d="M256 0V628" stroke="#27272A" stroke-width="1" stroke-opacity="0.2"/>
  <path d="M320 0V628" stroke="#27272A" stroke-width="1" stroke-opacity="0.2"/>
  <path d="M384 0V628" stroke="#27272A" stroke-width="1" stroke-opacity="0.2"/>
  <path d="M448 0V628" stroke="#27272A" stroke-width="1" stroke-opacity="0.2"/>
  <path d="M512 0V628" stroke="#27272A" stroke-width="1" stroke-opacity="0.2"/>
  <path d="M576 0V628" stroke="#27272A" stroke-width="1" stroke-opacity="0.2"/>
  <path d="M640 0V628" stroke="#27272A" stroke-width="1" stroke-opacity="0.2"/>
  <path d="M704 0V628" stroke="#27272A" stroke-width="1" stroke-opacity="0.2"/>
  <path d="M768 0V628" stroke="#27272A" stroke-width="1" stroke-opacity="0.2"/>
  <path d="M832 0V628" stroke="#27272A" stroke-width="1" stroke-opacity="0.2"/>
  <path d="M896 0V628" stroke="#27272A" stroke-width="1" stroke-opacity="0.2"/>
  <path d="M960 0V628" stroke="#27272A" stroke-width="1" stroke-opacity="0.2"/>
  <path d="M1024 0V628" stroke="#27272A" stroke-width="1" stroke-opacity="0.2"/>
  <path d="M1088 0V628" stroke="#27272A" stroke-width="1" stroke-opacity="0.2"/>
  <path d="M1152 0V628" stroke="#27272A" stroke-width="1" stroke-opacity="0.2"/>

  <!-- Main Window -->
  <rect x="100" y="80" width="1000" height="468" rx="12" fill="#18181B" stroke="#3F3F46" stroke-width="2"/>
  
  <!-- Window Header -->
  <rect x="100" y="80" width="1000" height="40" rx="12" fill="#27272A"/>
  <rect x="100" y="110" width="1000" height="10" fill="#27272A"/> <!-- Cover bottom radius -->
  <circle cx="130" cy="100" r="6" fill="#EF4444"/>
  <circle cx="150" cy="100" r="6" fill="#F59E0B"/>
  <circle cx="170" cy="100" r="6" fill="#10B981"/>
  
  <!-- Split Screen Line -->
  <line x1="600" y1="120" x2="600" y2="548" stroke="#3F3F46" stroke-width="2"/>

  <!-- Left Side: Prompt -->
  <text x="140" y="160" font-family="monospace" font-size="14" fill="#71717A">PROMPT_INPUT</text>
  <text x="140" y="200" font-family="sans-serif" font-size="24" font-weight="bold" fill="#E4E4E7">
    "Build a landing page for
  </text>
  <text x="140" y="235" font-family="sans-serif" font-size="24" font-weight="bold" fill="#E4E4E7">
    a SaaS startup with a
  </text>
  <text x="140" y="270" font-family="sans-serif" font-size="24" font-weight="bold" fill="#10B981">
    dark mode aesthetic
  </text>
  <text x="140" y="305" font-family="sans-serif" font-size="24" font-weight="bold" fill="#E4E4E7">
    and a pricing grid."
  </text>
  
  <!-- Cursor -->
  <rect x="380" y="280" width="2" height="24" fill="#10B981">
    <animate attributeName="opacity" values="1;0;1" dur="1s" repeatCount="indefinite"/>
  </rect>

  <!-- Right Side: Code -->
  <text x="640" y="160" font-family="monospace" font-size="14" fill="#71717A">GENERATED_OUTPUT (React + Tailwind)</text>
  
  <text x="640" y="200" font-family="monospace" font-size="14" fill="#D946EF">export default function</text>
  <text x="840" y="200" font-family="monospace" font-size="14" fill="#FCD34D">LandingPage</text>
  <text x="935" y="200" font-family="monospace" font-size="14" fill="#E4E4E7">() {</text>
  
  <text x="660" y="225" font-family="monospace" font-size="14" fill="#D946EF">return</text>
  <text x="715" y="225" font-family="monospace" font-size="14" fill="#E4E4E7">(</text>
  
  <text x="680" y="250" font-family="monospace" font-size="14" fill="#3B82F6">&lt;div</text>
  <text x="725" y="250" font-family="monospace" font-size="14" fill="#A1A1AA">className=</text>
  <text x="805" y="250" font-family="monospace" font-size="14" fill="#10B981">"min-h-screen bg-zinc-950"</text>
  <text x="1020" y="250" font-family="monospace" font-size="14" fill="#3B82F6">&gt;</text>
  
  <text x="700" y="275" font-family="monospace" font-size="14" fill="#3B82F6">&lt;Header</text>
  <text x="765" y="275" font-family="monospace" font-size="14" fill="#A1A1AA">variant=</text>
  <text x="830" y="275" font-family="monospace" font-size="14" fill="#10B981">"sticky"</text>
  <text x="900" y="275" font-family="monospace" font-size="14" fill="#3B82F6">/&gt;</text>
  
  <text x="700" y="300" font-family="monospace" font-size="14" fill="#3B82F6">&lt;HeroSection</text>
  <text x="810" y="300" font-family="monospace" font-size="14" fill="#3B82F6">&gt;</text>
  
  <text x="720" y="325" font-family="monospace" font-size="14" fill="#3B82F6">&lt;h1</text>
  <text x="755" y="325" font-family="monospace" font-size="14" fill="#A1A1AA">className=</text>
  <text x="835" y="325" font-family="monospace" font-size="14" fill="#10B981">"text-6xl font-bold"</text>
  <text x="990" y="325" font-family="monospace" font-size="14" fill="#3B82F6">&gt;</text>
  
  <text x="740" y="350" font-family="monospace" font-size="14" fill="#E4E4E7">Ship Faster.</text>
  
  <text x="720" y="375" font-family="monospace" font-size="14" fill="#3B82F6">&lt;/h1&gt;</text>
  
  <text x="700" y="400" font-family="monospace" font-size="14" fill="#3B82F6">&lt;/HeroSection&gt;</text>
  
  <text x="700" y="425" font-family="monospace" font-size="14" fill="#3B82F6">&lt;PricingGrid</text>
  <text x="805" y="425" font-family="monospace" font-size="14" fill="#A1A1AA">items=</text>
  <text x="855" y="425" font-family="monospace" font-size="14" fill="#FCD34D">{plans}</text>
  <text x="915" y="425" font-family="monospace" font-size="14" fill="#3B82F6">/&gt;</text>
  
  <text x="680" y="450" font-family="monospace" font-size="14" fill="#3B82F6">&lt;/div&gt;</text>
  
  <text x="660" y="475" font-family="monospace" font-size="14" fill="#E4E4E7">)</text>
  <text x="640" y="500" font-family="monospace" font-size="14" fill="#E4E4E7">}</text>

  <!-- Glitch Overlay Elements -->
  <rect x="100" y="80" width="1000" height="468" rx="12" fill="url(#glitch-gradient)" style="mix-blend-mode: overlay; opacity: 0.3"/>
  
  <defs>
    <linearGradient id="glitch-gradient" x1="0" y1="0" x2="1" y2="1">
      <stop offset="0%" stop-color="#10B981" stop-opacity="0.1"/>
      <stop offset="50%" stop-color="#000000" stop-opacity="0"/>
      <stop offset="100%" stop-color="#D946EF" stop-opacity="0.1"/>
    </linearGradient>
    <linearGradient id="logo-gradient" x1="0" y1="0" x2="1" y2="0">
      <stop offset="0%" stop-color="#10B981"/>
      <stop offset="100%" stop-color="#14B8A6"/>
    </linearGradient>
  </defs>
  
  <!-- BRANDING SECTION -->
  <g transform="translate(1000, 560)">
    <!-- Text -->
    <text x="0" y="30" font-family="sans-serif" font-weight="bold" font-size="24" text-anchor="end">
      <tspan fill="#FFFFFF">Hatch</tspan><tspan fill="url(#logo-gradient)">It</tspan>
    </text>
    
    <!-- Actual Logo Icon (Scaled down 0.4x) -->
    <g transform="translate(10, 0) scale(0.4)">
        <!-- Outer Shell -->
        <path d="M50 10 L 85 30 L 85 70 L 50 90 L 15 70 L 15 30 Z"
              stroke="#10B981" stroke-width="6" stroke-linecap="round" stroke-linejoin="round" fill="none"/>
        <!-- Inner Circuitry -->
        <path d="M50 50 L 50 90 M 50 50 L 85 30 M 50 50 L 15 30"
              stroke="#34D399" stroke-width="4" stroke-linecap="round" stroke-linejoin="round" fill="none"/>
        <!-- Core -->
        <circle cx="50" cy="50" r="5" fill="white"/>
    </g>
  </g>

</svg>