<svg width="1500" height="500" viewBox="0 0 1500 500" fill="none" xmlns="http://www.w3.org/2000/svg">
<g clip-path="url(#clip0_5_239)">
<path d="M1500 0H0V500H1500V0Z" fill="url(#paint0_linear_5_239)"/>
<g opacity="0.1" filter="url(#filter0_f_5_239)">
<path d="M250 450C360.457 450 450 360.457 450 250C450 139.543 360.457 50 250 50C139.543 50 50 139.543 50 250C50 360.457 139.543 450 250 450Z" fill="#A855F7"/>
</g>
<g opacity="0.08" filter="url(#filter1_f_5_239)">
<path d="M1300 430C1399.41 430 1480 349.411 1480 250C1480 150.589 1399.41 70 1300 70C1200.59 70 1120 150.589 1120 250C1120 349.411 1200.59 430 1300 430Z" fill="#F59E0B"/>
</g>
<g filter="url(#filter2_f_5_239)">
<path d="M430 320C460.376 320 485 288.66 485 250C485 211.34 460.376 180 430 180C399.624 180 375 211.34 375 250C375 288.66 399.624 320 430 320Z" fill="url(#paint1_linear_5_239)"/>
</g>
<path opacity="0.4" d="M412 240C417.523 240 422 233.284 422 225C422 216.716 417.523 210 412 210C406.477 210 402 216.716 402 225C402 233.284 406.477 240 412 240Z" fill="white"/>
<path d="M555.689 267V201.545H569.528V228.552H597.621V201.545H611.428V267H597.621V239.962H569.528V267H555.689ZM636.58 267.927C633.448 267.927 630.657 267.384 628.207 266.297C625.756 265.189 623.817 263.559 622.39 261.407C620.984 259.234 620.281 256.528 620.281 253.289C620.281 250.562 620.781 248.271 621.783 246.418C622.784 244.564 624.148 243.072 625.874 241.943C627.599 240.814 629.56 239.962 631.754 239.386C633.97 238.811 636.293 238.406 638.722 238.172C641.577 237.874 643.878 237.597 645.625 237.341C647.372 237.064 648.64 236.659 649.428 236.126C650.217 235.594 650.611 234.805 650.611 233.761V233.57C650.611 231.545 649.972 229.979 648.693 228.871C647.436 227.763 645.646 227.21 643.324 227.21C640.874 227.21 638.924 227.753 637.475 228.839C636.026 229.905 635.067 231.247 634.599 232.866L622.006 231.844C622.646 228.861 623.903 226.283 625.778 224.109C627.653 221.915 630.071 220.232 633.033 219.06C636.016 217.866 639.467 217.27 643.388 217.27C646.115 217.27 648.725 217.589 651.218 218.229C653.732 218.868 655.959 219.859 657.898 221.201C659.858 222.543 661.403 224.269 662.532 226.379C663.661 228.467 664.226 230.97 664.226 233.889V267H651.314V260.192H650.93C650.142 261.727 649.087 263.08 647.766 264.251C646.445 265.402 644.858 266.308 643.004 266.968C641.151 267.607 639.009 267.927 636.58 267.927ZM640.479 258.531C642.482 258.531 644.251 258.136 645.785 257.348C647.319 256.538 648.523 255.452 649.396 254.088C650.27 252.724 650.707 251.18 650.707 249.454V244.244C650.281 244.521 649.695 244.777 648.949 245.011C648.224 245.224 647.404 245.427 646.488 245.619C645.572 245.789 644.656 245.949 643.739 246.098C642.823 246.226 641.992 246.343 641.246 246.45C639.648 246.684 638.253 247.057 637.06 247.568C635.866 248.08 634.94 248.772 634.279 249.646C633.619 250.498 633.288 251.563 633.288 252.842C633.288 254.695 633.96 256.112 635.302 257.092C636.665 258.051 638.391 258.531 640.479 258.531ZM700.9 217.909V228.136H671.337V217.909H700.9ZM678.049 206.148H691.664V251.915C691.664 253.172 691.855 254.152 692.239 254.855C692.623 255.537 693.155 256.016 693.837 256.293C694.54 256.57 695.35 256.709 696.266 256.709C696.905 256.709 697.544 256.656 698.184 256.549C698.823 256.421 699.313 256.325 699.654 256.261L701.795 266.393C701.113 266.606 700.154 266.851 698.919 267.128C697.683 267.426 696.181 267.607 694.412 267.671C691.131 267.799 688.255 267.362 685.783 266.361C683.333 265.359 681.426 263.804 680.062 261.695C678.699 259.585 678.027 256.922 678.049 253.705V206.148ZM731.422 267.959C726.394 267.959 722.069 266.893 718.446 264.763C714.846 262.611 712.076 259.628 710.137 255.814C708.219 252 707.26 247.611 707.26 242.646C707.26 237.618 708.23 233.207 710.169 229.415C712.129 225.601 714.909 222.629 718.51 220.498C722.111 218.346 726.394 217.27 731.358 217.27C735.641 217.27 739.391 218.048 742.608 219.603C745.826 221.158 748.372 223.342 750.247 226.155C752.122 228.967 753.155 232.27 753.347 236.062H740.499C740.137 233.612 739.178 231.641 737.623 230.15C736.088 228.637 734.075 227.881 731.582 227.881C729.473 227.881 727.63 228.456 726.053 229.607C724.498 230.736 723.283 232.387 722.409 234.56C721.536 236.734 721.099 239.365 721.099 242.455C721.099 245.587 721.525 248.25 722.377 250.445C723.251 252.639 724.476 254.312 726.053 255.462C727.63 256.613 729.473 257.188 731.582 257.188C733.137 257.188 734.533 256.869 735.769 256.229C737.026 255.59 738.059 254.663 738.869 253.449C739.7 252.213 740.243 250.732 740.499 249.006H753.347C753.134 252.756 752.111 256.059 750.279 258.914C748.468 261.748 745.964 263.964 742.768 265.562C739.572 267.16 735.79 267.959 731.422 267.959ZM775.679 238.619V267H762.064V201.545H775.296V226.57H775.871C776.979 223.673 778.769 221.403 781.24 219.763C783.712 218.101 786.812 217.27 790.541 217.27C793.95 217.27 796.922 218.016 799.458 219.507C802.014 220.977 803.996 223.097 805.402 225.867C806.83 228.616 807.533 231.908 807.512 235.743V267H793.896V238.172C793.918 235.146 793.151 232.792 791.595 231.109C790.061 229.425 787.909 228.584 785.139 228.584C783.286 228.584 781.645 228.978 780.218 229.766C778.811 230.555 777.703 231.705 776.894 233.218C776.105 234.71 775.7 236.51 775.679 238.619ZM832.321 201.545V267H818.482V201.545H832.321ZM869.562 217.909V228.136H839.999V217.909H869.562ZM846.711 206.148H860.326V251.915C860.326 253.172 860.518 254.152 860.901 254.855C861.285 255.537 861.817 256.016 862.499 256.293C863.202 256.57 864.012 256.709 864.928 256.709C865.567 256.709 866.206 256.656 866.846 256.549C867.485 256.421 867.975 256.325 868.316 256.261L870.457 266.393C869.775 266.606 868.817 266.851 867.581 267.128C866.345 267.426 864.843 267.607 863.074 267.671C859.793 267.799 856.917 267.362 854.445 266.361C851.995 265.359 850.088 263.804 848.724 261.695C847.361 259.585 846.689 256.922 846.711 253.705V206.148Z" fill="white"/>
<path d="M895.391 267.831C893.282 267.831 891.471 267.085 889.958 265.594C888.467 264.081 887.721 262.27 887.721 260.161C887.721 258.072 888.467 256.283 889.958 254.791C891.471 253.3 893.282 252.554 895.391 252.554C897.437 252.554 899.227 253.3 900.761 254.791C902.295 256.283 903.062 258.072 903.062 260.161C903.062 261.567 902.7 262.856 901.975 264.028C901.272 265.178 900.345 266.105 899.195 266.808C898.044 267.49 896.776 267.831 895.391 267.831ZM932.329 267.799C928.601 267.799 925.224 266.84 922.198 264.923C919.194 262.984 916.807 260.139 915.039 256.389C913.292 252.618 912.418 247.994 912.418 242.518C912.418 236.893 913.324 232.217 915.135 228.488C916.946 224.738 919.354 221.936 922.358 220.082C925.383 218.207 928.697 217.27 932.297 217.27C935.046 217.27 937.336 217.739 939.169 218.676C941.023 219.592 942.514 220.743 943.643 222.128C944.794 223.491 945.667 224.834 946.264 226.155H946.68V201.545H960.263V267H946.839V259.138H946.264C945.625 260.501 944.719 261.854 943.547 263.197C942.397 264.518 940.895 265.615 939.041 266.489C937.209 267.362 934.971 267.799 932.329 267.799ZM936.644 256.964C938.839 256.964 940.692 256.368 942.205 255.175C943.739 253.96 944.911 252.266 945.721 250.093C946.552 247.92 946.967 245.374 946.967 242.455C946.967 239.536 946.562 237 945.753 234.848C944.943 232.696 943.771 231.034 942.237 229.862C940.703 228.69 938.839 228.104 936.644 228.104C934.407 228.104 932.521 228.712 930.987 229.926C929.453 231.141 928.292 232.824 927.503 234.976C926.715 237.128 926.321 239.621 926.321 242.455C926.321 245.31 926.715 247.835 927.503 250.029C928.313 252.202 929.474 253.907 930.987 255.143C932.521 256.357 934.407 256.964 936.644 256.964ZM993.829 267.959C988.779 267.959 984.433 266.936 980.789 264.891C977.167 262.824 974.376 259.905 972.415 256.134C970.455 252.341 969.475 247.856 969.475 242.678C969.475 237.629 970.455 233.197 972.415 229.383C974.376 225.569 977.135 222.597 980.693 220.466C984.273 218.335 988.47 217.27 993.286 217.27C996.524 217.27 999.539 217.792 1002.33 218.836C1005.14 219.859 1007.59 221.403 1009.68 223.47C1011.79 225.537 1013.43 228.136 1014.6 231.268C1015.77 234.379 1016.36 238.023 1016.36 242.199V245.938H974.908V237.501H1003.54C1003.54 235.54 1003.12 233.804 1002.27 232.291C1001.41 230.778 1000.23 229.596 998.719 228.744C997.227 227.87 995.491 227.433 993.509 227.433C991.442 227.433 989.61 227.913 988.012 228.871C986.435 229.809 985.2 231.077 984.305 232.675C983.41 234.251 982.952 236.009 982.93 237.948V245.97C982.93 248.399 983.378 250.498 984.273 252.266C985.189 254.035 986.478 255.398 988.14 256.357C989.802 257.316 991.773 257.795 994.053 257.795C995.565 257.795 996.95 257.582 998.207 257.156C999.464 256.73 1000.54 256.091 1001.44 255.239C1002.33 254.386 1003.01 253.342 1003.48 252.107L1016.07 252.938C1015.43 255.963 1014.12 258.605 1012.14 260.864C1010.18 263.101 1007.65 264.848 1004.54 266.105C1001.45 267.341 997.877 267.959 993.829 267.959ZM1069.69 217.909L1052.53 267H1037.19L1020.03 217.909H1034.41L1044.61 253.033H1045.12L1055.28 217.909H1069.69Z" fill="#A855F7"/>
<path d="M558.75 339H552.466V318.636H559.028C561.004 318.636 562.694 319.044 564.099 319.859C565.505 320.668 566.582 321.831 567.331 323.349C568.08 324.861 568.455 326.67 568.455 328.778C568.455 330.9 568.077 332.726 567.321 334.257C566.565 335.782 565.465 336.955 564.02 337.777C562.575 338.592 560.818 339 558.75 339ZM554.932 336.812H558.591C560.275 336.812 561.67 336.488 562.777 335.838C563.884 335.188 564.709 334.264 565.253 333.064C565.796 331.864 566.068 330.436 566.068 328.778C566.068 327.134 565.8 325.719 565.263 324.533C564.726 323.339 563.924 322.425 562.857 321.788C561.789 321.145 560.46 320.824 558.869 320.824H554.932V336.812ZM578.676 339.318C577.205 339.318 575.935 338.993 574.868 338.344C573.807 337.688 572.989 336.773 572.412 335.599C571.842 334.42 571.557 333.047 571.557 331.483C571.557 329.919 571.842 328.54 572.412 327.347C572.989 326.147 573.791 325.212 574.818 324.543C575.852 323.866 577.059 323.528 578.438 323.528C579.233 323.528 580.018 323.661 580.794 323.926C581.57 324.191 582.276 324.622 582.912 325.219C583.548 325.809 584.055 326.591 584.433 327.565C584.811 328.54 585 329.74 585 331.165V332.159H573.227V330.131H582.614C582.614 329.269 582.441 328.5 582.097 327.824C581.759 327.148 581.275 326.614 580.645 326.223C580.022 325.832 579.286 325.636 578.438 325.636C577.503 325.636 576.694 325.868 576.011 326.332C575.335 326.79 574.815 327.386 574.45 328.122C574.086 328.858 573.903 329.647 573.903 330.489V331.841C573.903 332.994 574.102 333.972 574.5 334.774C574.904 335.57 575.464 336.176 576.18 336.594C576.896 337.005 577.728 337.21 578.676 337.21C579.293 337.21 579.849 337.124 580.347 336.952C580.85 336.773 581.285 336.508 581.649 336.156C582.014 335.798 582.295 335.354 582.494 334.824L584.761 335.46C584.523 336.229 584.122 336.905 583.558 337.489C582.995 338.065 582.299 338.516 581.47 338.841C580.642 339.159 579.71 339.318 578.676 339.318ZM599.388 327.148L597.28 327.744C597.147 327.393 596.952 327.052 596.693 326.72C596.441 326.382 596.097 326.104 595.659 325.885C595.222 325.666 594.661 325.557 593.979 325.557C593.044 325.557 592.265 325.772 591.642 326.203C591.026 326.627 590.717 327.168 590.717 327.824C590.717 328.407 590.929 328.868 591.354 329.206C591.778 329.544 592.441 329.826 593.342 330.051L595.609 330.608C596.975 330.939 597.992 331.446 598.662 332.129C599.331 332.805 599.666 333.677 599.666 334.744C599.666 335.619 599.414 336.402 598.911 337.091C598.413 337.78 597.717 338.324 596.822 338.722C595.928 339.119 594.887 339.318 593.7 339.318C592.143 339.318 590.853 338.98 589.832 338.304C588.812 337.628 588.165 336.64 587.893 335.341L590.121 334.784C590.333 335.606 590.734 336.223 591.324 336.634C591.92 337.045 592.699 337.25 593.661 337.25C594.754 337.25 595.623 337.018 596.266 336.554C596.915 336.083 597.24 335.52 597.24 334.864C597.24 334.333 597.054 333.889 596.683 333.531C596.312 333.167 595.742 332.895 594.973 332.716L592.428 332.119C591.029 331.788 590.001 331.274 589.345 330.578C588.696 329.875 588.371 328.997 588.371 327.943C588.371 327.081 588.613 326.319 589.097 325.656C589.587 324.993 590.253 324.473 591.095 324.095C591.944 323.717 592.905 323.528 593.979 323.528C595.49 323.528 596.677 323.86 597.538 324.523C598.407 325.186 599.023 326.061 599.388 327.148ZM609.403 339.318C607.971 339.318 606.738 338.98 605.704 338.304C604.67 337.628 603.875 336.696 603.318 335.51C602.761 334.323 602.483 332.968 602.483 331.443C602.483 329.892 602.768 328.523 603.338 327.337C603.914 326.143 604.717 325.212 605.744 324.543C606.778 323.866 607.984 323.528 609.363 323.528C610.437 323.528 611.405 323.727 612.267 324.125C613.128 324.523 613.834 325.08 614.385 325.795C614.935 326.511 615.276 327.347 615.409 328.301H613.062C612.883 327.605 612.485 326.989 611.869 326.452C611.259 325.908 610.437 325.636 609.403 325.636C608.488 325.636 607.686 325.875 606.997 326.352C606.314 326.823 605.78 327.489 605.396 328.351C605.018 329.206 604.829 330.21 604.829 331.364C604.829 332.544 605.015 333.571 605.386 334.446C605.764 335.321 606.294 336 606.977 336.484C607.666 336.968 608.475 337.21 609.403 337.21C610.013 337.21 610.566 337.104 611.064 336.892C611.561 336.68 611.982 336.375 612.326 335.977C612.671 335.58 612.916 335.102 613.062 334.545H615.409C615.276 335.447 614.948 336.259 614.424 336.982C613.907 337.697 613.221 338.268 612.366 338.692C611.518 339.109 610.53 339.318 609.403 339.318ZM618.839 339V323.727H621.106V326.034H621.265C621.544 325.278 622.047 324.665 622.777 324.195C623.506 323.724 624.328 323.489 625.243 323.489C625.415 323.489 625.63 323.492 625.889 323.499C626.147 323.505 626.343 323.515 626.475 323.528V325.915C626.396 325.895 626.214 325.865 625.929 325.825C625.65 325.779 625.355 325.756 625.044 325.756C624.301 325.756 623.638 325.911 623.055 326.223C622.478 326.528 622.021 326.952 621.683 327.496C621.351 328.033 621.186 328.646 621.186 329.335V339H618.839ZM629.257 339V323.727H631.604V339H629.257ZM630.45 321.182C629.993 321.182 629.598 321.026 629.267 320.714C628.942 320.403 628.78 320.028 628.78 319.591C628.78 319.153 628.942 318.779 629.267 318.467C629.598 318.156 629.993 318 630.45 318C630.908 318 631.299 318.156 631.624 318.467C631.955 318.779 632.121 319.153 632.121 319.591C632.121 320.028 631.955 320.403 631.624 320.714C631.299 321.026 630.908 321.182 630.45 321.182ZM636.22 339V318.636H638.566V326.153H638.765C638.938 325.888 639.176 325.55 639.481 325.139C639.793 324.722 640.237 324.35 640.814 324.026C641.397 323.694 642.186 323.528 643.18 323.528C644.466 323.528 645.6 323.85 646.581 324.493C647.562 325.136 648.327 326.047 648.877 327.227C649.428 328.407 649.703 329.799 649.703 331.403C649.703 333.021 649.428 334.423 648.877 335.609C648.327 336.789 647.565 337.704 646.591 338.354C645.616 338.997 644.493 339.318 643.22 339.318C642.239 339.318 641.453 339.156 640.863 338.831C640.273 338.5 639.819 338.125 639.501 337.707C639.183 337.283 638.938 336.932 638.765 336.653H638.487V339H636.22ZM638.527 331.364C638.527 332.517 638.696 333.535 639.034 334.416C639.372 335.291 639.866 335.977 640.515 336.474C641.165 336.965 641.96 337.21 642.902 337.21C643.883 337.21 644.701 336.952 645.358 336.435C646.02 335.911 646.518 335.208 646.849 334.327C647.187 333.438 647.356 332.451 647.356 331.364C647.356 330.29 647.19 329.322 646.859 328.46C646.534 327.592 646.04 326.906 645.377 326.402C644.721 325.892 643.896 325.636 642.902 325.636C641.947 325.636 641.145 325.878 640.495 326.362C639.846 326.839 639.355 327.509 639.024 328.371C638.692 329.226 638.527 330.223 638.527 331.364ZM659.696 339.318C658.224 339.318 656.955 338.993 655.887 338.344C654.827 337.688 654.008 336.773 653.431 335.599C652.861 334.42 652.576 333.047 652.576 331.483C652.576 329.919 652.861 328.54 653.431 327.347C654.008 326.147 654.81 325.212 655.838 324.543C656.872 323.866 658.078 323.528 659.457 323.528C660.252 323.528 661.038 323.661 661.814 323.926C662.589 324.191 663.295 324.622 663.931 325.219C664.568 325.809 665.075 326.591 665.453 327.565C665.831 328.54 666.02 329.74 666.02 331.165V332.159H654.247V330.131H663.633C663.633 329.269 663.461 328.5 663.116 327.824C662.778 327.148 662.294 326.614 661.664 326.223C661.041 325.832 660.306 325.636 659.457 325.636C658.522 325.636 657.714 325.868 657.031 326.332C656.355 326.79 655.834 327.386 655.47 328.122C655.105 328.858 654.923 329.647 654.923 330.489V331.841C654.923 332.994 655.122 333.972 655.52 334.774C655.924 335.57 656.484 336.176 657.2 336.594C657.916 337.005 658.748 337.21 659.696 337.21C660.312 337.21 660.869 337.124 661.366 336.952C661.87 336.773 662.304 336.508 662.669 336.156C663.033 335.798 663.315 335.354 663.514 334.824L665.781 335.46C665.542 336.229 665.141 336.905 664.578 337.489C664.014 338.065 663.318 338.516 662.49 338.841C661.661 339.159 660.73 339.318 659.696 339.318ZM677.464 339V323.727H679.811V339H677.464ZM678.657 321.182C678.2 321.182 677.806 321.026 677.474 320.714C677.149 320.403 676.987 320.028 676.987 319.591C676.987 319.153 677.149 318.779 677.474 318.467C677.806 318.156 678.2 318 678.657 318C679.115 318 679.506 318.156 679.831 318.467C680.162 318.779 680.328 319.153 680.328 319.591C680.328 320.028 680.162 320.403 679.831 320.714C679.506 321.026 679.115 321.182 678.657 321.182ZM690.751 323.727V325.716H682.836V323.727H690.751ZM685.143 320.068H687.489V334.625C687.489 335.288 687.585 335.785 687.778 336.116C687.977 336.441 688.228 336.66 688.533 336.773C688.845 336.879 689.173 336.932 689.518 336.932C689.776 336.932 689.988 336.919 690.154 336.892C690.32 336.859 690.452 336.832 690.552 336.812L691.029 338.92C690.87 338.98 690.648 339.04 690.363 339.099C690.078 339.166 689.717 339.199 689.279 339.199C688.616 339.199 687.967 339.056 687.33 338.771C686.701 338.486 686.177 338.052 685.759 337.469C685.348 336.885 685.143 336.15 685.143 335.261V320.068ZM695.991 339.159C695.5 339.159 695.079 338.983 694.728 338.632C694.377 338.281 694.201 337.86 694.201 337.369C694.201 336.879 694.377 336.458 694.728 336.107C695.079 335.755 695.5 335.58 695.991 335.58C696.481 335.58 696.902 335.755 697.254 336.107C697.605 336.458 697.781 336.879 697.781 337.369C697.781 337.694 697.698 337.992 697.532 338.264C697.373 338.536 697.157 338.755 696.886 338.92C696.621 339.08 696.322 339.159 695.991 339.159ZM710.185 339V318.636H717.304C718.723 318.636 719.893 318.882 720.814 319.372C721.735 319.856 722.421 320.509 722.872 321.331C723.323 322.146 723.548 323.051 723.548 324.045C723.548 324.92 723.393 325.643 723.081 326.213C722.776 326.783 722.372 327.234 721.868 327.565C721.371 327.897 720.83 328.142 720.247 328.301V328.5C720.87 328.54 721.497 328.759 722.126 329.156C722.756 329.554 723.283 330.124 723.707 330.866C724.132 331.609 724.344 332.517 724.344 333.591C724.344 334.612 724.112 335.53 723.648 336.345C723.184 337.161 722.451 337.807 721.45 338.284C720.449 338.761 719.147 339 717.543 339H710.185ZM712.651 336.812H717.543C719.153 336.812 720.297 336.501 720.973 335.878C721.656 335.248 721.997 334.486 721.997 333.591C721.997 332.902 721.821 332.265 721.47 331.682C721.119 331.092 720.618 330.621 719.969 330.27C719.319 329.912 718.55 329.733 717.662 329.733H712.651V336.812ZM712.651 327.585H717.224C717.967 327.585 718.636 327.439 719.233 327.148C719.836 326.856 720.313 326.445 720.665 325.915C721.023 325.384 721.202 324.761 721.202 324.045C721.202 323.151 720.89 322.392 720.267 321.768C719.644 321.139 718.656 320.824 717.304 320.824H712.651V327.585ZM737.702 332.756V323.727H740.049V339H737.702V336.415H737.543C737.185 337.19 736.629 337.85 735.873 338.393C735.117 338.93 734.163 339.199 733.009 339.199C732.055 339.199 731.206 338.99 730.464 338.572C729.721 338.148 729.138 337.512 728.714 336.663C728.29 335.808 728.077 334.731 728.077 333.432V323.727H730.424V333.273C730.424 334.386 730.736 335.275 731.359 335.938C731.988 336.6 732.79 336.932 733.765 336.932C734.348 336.932 734.942 336.783 735.545 336.484C736.155 336.186 736.665 335.729 737.076 335.112C737.494 334.496 737.702 333.71 737.702 332.756ZM744.347 339V323.727H746.694V339H744.347ZM745.54 321.182C745.083 321.182 744.688 321.026 744.357 320.714C744.032 320.403 743.87 320.028 743.87 319.591C743.87 319.153 744.032 318.779 744.357 318.467C744.688 318.156 745.083 318 745.54 318C745.998 318 746.389 318.156 746.713 318.467C747.045 318.779 747.211 319.153 747.211 319.591C747.211 320.028 747.045 320.403 746.713 320.714C746.389 321.026 745.998 321.182 745.54 321.182ZM753.338 318.636V339H750.991V318.636H753.338ZM763.403 339.318C762.13 339.318 761.007 338.997 760.032 338.354C759.058 337.704 758.296 336.789 757.745 335.609C757.195 334.423 756.92 333.021 756.92 331.403C756.92 329.799 757.195 328.407 757.745 327.227C758.296 326.047 759.061 325.136 760.042 324.493C761.023 323.85 762.157 323.528 763.443 323.528C764.437 323.528 765.223 323.694 765.799 324.026C766.383 324.35 766.827 324.722 767.132 325.139C767.443 325.55 767.685 325.888 767.858 326.153H768.056V318.636H770.403V339H768.136V336.653H767.858C767.685 336.932 767.44 337.283 767.122 337.707C766.804 338.125 766.35 338.5 765.76 338.831C765.17 339.156 764.384 339.318 763.403 339.318ZM763.721 337.21C764.663 337.21 765.458 336.965 766.108 336.474C766.757 335.977 767.251 335.291 767.589 334.416C767.927 333.535 768.096 332.517 768.096 331.364C768.096 330.223 767.931 329.226 767.599 328.371C767.268 327.509 766.777 326.839 766.127 326.362C765.478 325.878 764.676 325.636 763.721 325.636C762.727 325.636 761.898 325.892 761.235 326.402C760.579 326.906 760.085 327.592 759.754 328.46C759.429 329.322 759.267 330.29 759.267 331.364C759.267 332.451 759.432 333.438 759.764 334.327C760.102 335.208 760.599 335.911 761.255 336.435C761.918 336.952 762.74 337.21 763.721 337.21ZM782.902 339V323.727H785.248V339H782.902ZM784.095 321.182C783.637 321.182 783.243 321.026 782.912 320.714C782.587 320.403 782.424 320.028 782.424 319.591C782.424 319.153 782.587 318.779 782.912 318.467C783.243 318.156 783.637 318 784.095 318C784.552 318 784.943 318.156 785.268 318.467C785.6 318.779 785.765 319.153 785.765 319.591C785.765 320.028 785.6 320.403 785.268 320.714C784.943 321.026 784.552 321.182 784.095 321.182ZM796.188 323.727V325.716H788.273V323.727H796.188ZM790.58 320.068H792.927V334.625C792.927 335.288 793.023 335.785 793.215 336.116C793.414 336.441 793.666 336.66 793.971 336.773C794.282 336.879 794.611 336.932 794.955 336.932C795.214 336.932 795.426 336.919 795.592 336.892C795.757 336.859 795.89 336.832 795.989 336.812L796.467 338.92C796.308 338.98 796.085 339.04 795.8 339.099C795.515 339.166 795.154 339.199 794.717 339.199C794.054 339.199 793.404 339.056 792.768 338.771C792.138 338.486 791.614 338.052 791.197 337.469C790.786 336.885 790.58 336.15 790.58 335.261V320.068ZM801.428 339.159C800.938 339.159 800.517 338.983 800.165 338.632C799.814 338.281 799.638 337.86 799.638 337.369C799.638 336.879 799.814 336.458 800.165 336.107C800.517 335.755 800.938 335.58 801.428 335.58C801.919 335.58 802.34 335.755 802.691 336.107C803.042 336.458 803.218 336.879 803.218 337.369C803.218 337.694 803.135 337.992 802.969 338.264C802.81 338.536 802.595 338.755 802.323 338.92C802.058 339.08 801.76 339.159 801.428 339.159ZM826.759 323.727C826.639 322.72 826.155 321.938 825.307 321.381C824.458 320.824 823.418 320.545 822.185 320.545C821.283 320.545 820.494 320.691 819.818 320.983C819.149 321.275 818.625 321.676 818.247 322.186C817.876 322.696 817.69 323.277 817.69 323.926C817.69 324.47 817.82 324.937 818.078 325.328C818.343 325.713 818.681 326.034 819.092 326.293C819.503 326.545 819.934 326.753 820.385 326.919C820.836 327.078 821.25 327.207 821.628 327.307L823.696 327.864C824.226 328.003 824.816 328.195 825.466 328.44C826.122 328.686 826.749 329.02 827.345 329.445C827.948 329.862 828.446 330.399 828.837 331.055C829.228 331.712 829.423 332.517 829.423 333.472C829.423 334.572 829.135 335.566 828.558 336.455C827.988 337.343 827.153 338.049 826.053 338.572C824.959 339.096 823.63 339.358 822.065 339.358C820.607 339.358 819.344 339.123 818.277 338.652C817.216 338.181 816.381 337.525 815.771 336.683C815.168 335.841 814.827 334.864 814.747 333.75H817.293C817.359 334.519 817.617 335.155 818.068 335.659C818.526 336.156 819.102 336.527 819.798 336.773C820.501 337.011 821.257 337.131 822.065 337.131C823.007 337.131 823.852 336.978 824.601 336.673C825.35 336.362 825.943 335.931 826.381 335.381C826.818 334.824 827.037 334.174 827.037 333.432C827.037 332.756 826.848 332.205 826.47 331.781C826.092 331.357 825.595 331.012 824.979 330.747C824.362 330.482 823.696 330.25 822.98 330.051L820.474 329.335C818.884 328.878 817.624 328.225 816.696 327.376C815.768 326.528 815.304 325.418 815.304 324.045C815.304 322.905 815.612 321.911 816.229 321.062C816.852 320.207 817.687 319.545 818.734 319.074C819.788 318.597 820.965 318.358 822.264 318.358C823.577 318.358 824.743 318.593 825.764 319.064C826.785 319.528 827.594 320.164 828.19 320.973C828.794 321.782 829.112 322.7 829.145 323.727H826.759ZM835.506 329.812V339H833.159V318.636H835.506V326.114H835.705C836.063 325.325 836.6 324.698 837.316 324.234C838.038 323.764 838.999 323.528 840.199 323.528C841.24 323.528 842.151 323.737 842.934 324.155C843.716 324.566 844.322 325.199 844.753 326.054C845.191 326.902 845.409 327.983 845.409 329.295V339H843.063V329.455C843.063 328.241 842.748 327.304 842.118 326.641C841.495 325.971 840.63 325.636 839.523 325.636C838.754 325.636 838.065 325.799 837.455 326.124C836.852 326.448 836.374 326.922 836.023 327.545C835.678 328.169 835.506 328.924 835.506 329.812ZM849.702 339V323.727H852.049V339H849.702ZM850.896 321.182C850.438 321.182 850.044 321.026 849.712 320.714C849.388 320.403 849.225 320.028 849.225 319.591C849.225 319.153 849.388 318.779 849.712 318.467C850.044 318.156 850.438 318 850.896 318C851.353 318 851.744 318.156 852.069 318.467C852.4 318.779 852.566 319.153 852.566 319.591C852.566 320.028 852.4 320.403 852.069 320.714C851.744 321.026 851.353 321.182 850.896 321.182ZM856.347 344.727V323.727H858.614V326.153H858.892C859.065 325.888 859.303 325.55 859.608 325.139C859.92 324.722 860.364 324.35 860.941 324.026C861.524 323.694 862.313 323.528 863.307 323.528C864.593 323.528 865.727 323.85 866.708 324.493C867.689 325.136 868.454 326.047 869.005 327.227C869.555 328.407 869.83 329.799 869.83 331.403C869.83 333.021 869.555 334.423 869.005 335.609C868.454 336.789 867.692 337.704 866.718 338.354C865.743 338.997 864.62 339.318 863.347 339.318C862.366 339.318 861.58 339.156 860.99 338.831C860.4 338.5 859.946 338.125 859.628 337.707C859.31 337.283 859.065 336.932 858.892 336.653H858.694V344.727H856.347ZM858.654 331.364C858.654 332.517 858.823 333.535 859.161 334.416C859.499 335.291 859.993 335.977 860.642 336.474C861.292 336.965 862.087 337.21 863.029 337.21C864.01 337.21 864.828 336.952 865.485 336.435C866.148 335.911 866.645 335.208 866.976 334.327C867.314 333.438 867.483 332.451 867.483 331.364C867.483 330.29 867.318 329.322 866.986 328.46C866.661 327.592 866.167 326.906 865.505 326.402C864.848 325.892 864.023 325.636 863.029 325.636C862.074 325.636 861.272 325.878 860.623 326.362C859.973 326.839 859.482 327.509 859.151 328.371C858.819 329.226 858.654 330.223 858.654 331.364ZM881.284 339V323.727H883.631V339H881.284ZM882.478 321.182C882.02 321.182 881.626 321.026 881.294 320.714C880.97 320.403 880.807 320.028 880.807 319.591C880.807 319.153 880.97 318.779 881.294 318.467C881.626 318.156 882.02 318 882.478 318C882.935 318 883.326 318.156 883.651 318.467C883.982 318.779 884.148 319.153 884.148 319.591C884.148 320.028 883.982 320.403 883.651 320.714C883.326 321.026 882.935 321.182 882.478 321.182ZM894.571 323.727V325.716H886.656V323.727H894.571ZM888.963 320.068H891.31V334.625C891.31 335.288 891.406 335.785 891.598 336.116C891.797 336.441 892.049 336.66 892.354 336.773C892.665 336.879 892.993 336.932 893.338 336.932C893.597 336.932 893.809 336.919 893.974 336.892C894.14 336.859 894.273 336.832 894.372 336.812L894.849 338.92C894.69 338.98 894.468 339.04 894.183 339.099C893.898 339.166 893.537 339.199 893.099 339.199C892.437 339.199 891.787 339.056 891.151 338.771C890.521 338.486 889.997 338.052 889.58 337.469C889.169 336.885 888.963 336.15 888.963 335.261V320.068ZM899.811 339.159C899.321 339.159 898.9 338.983 898.548 338.632C898.197 338.281 898.021 337.86 898.021 337.369C898.021 336.879 898.197 336.458 898.548 336.107C898.9 335.755 899.321 335.58 899.811 335.58C900.302 335.58 900.723 335.755 901.074 336.107C901.425 336.458 901.601 336.879 901.601 337.369C901.601 337.694 901.518 337.992 901.352 338.264C901.193 338.536 900.978 338.755 900.706 338.92C900.441 339.08 900.143 339.159 899.811 339.159Z" fill="#A1A1AA"/>
<path opacity="0.8" d="M945 490H555C552.239 490 550 492.239 550 495C550 497.761 552.239 500 555 500H945C947.761 500 950 497.761 950 495C950 492.239 947.761 490 945 490Z" fill="#A855F7"/>
</g>
<defs>
<filter id="filter0_f_5_239" x="0" y="0" width="500" height="500" filterUnits="userSpaceOnUse" color-interpolation-filters="sRGB">
<feFlood flood-opacity="0" result="BackgroundImageFix"/>
<feBlend mode="normal" in="SourceGraphic" in2="BackgroundImageFix" result="shape"/>
<feGaussianBlur stdDeviation="25" result="effect1_foregroundBlur_5_239"/>
</filter>
<filter id="filter1_f_5_239" x="1070" y="20" width="460" height="460" filterUnits="userSpaceOnUse" color-interpolation-filters="sRGB">
<feFlood flood-opacity="0" result="BackgroundImageFix"/>
<feBlend mode="normal" in="SourceGraphic" in2="BackgroundImageFix" result="shape"/>
<feGaussianBlur stdDeviation="25" result="effect1_foregroundBlur_5_239"/>
</filter>
<filter id="filter2_f_5_239" x="325" y="130" width="210" height="240" filterUnits="userSpaceOnUse" color-interpolation-filters="sRGB">
<feFlood flood-opacity="0" result="BackgroundImageFix"/>
<feBlend mode="normal" in="SourceGraphic" in2="BackgroundImageFix" result="shape"/>
<feGaussianBlur stdDeviation="25" result="effect1_foregroundBlur_5_239"/>
</filter>
<linearGradient id="paint0_linear_5_239" x1="0" y1="0" x2="30000" y2="90000" gradientUnits="userSpaceOnUse">
<stop stop-color="#09090B"/>
<stop offset="0.5" stop-color="#18181B"/>
<stop offset="1" stop-color="#09090B"/>
</linearGradient>
<linearGradient id="paint1_linear_5_239" x1="375" y1="180" x2="375" y2="14180" gradientUnits="userSpaceOnUse">
<stop stop-color="#FEF3C7"/>
<stop offset="1" stop-color="#FCD34D"/>
</linearGradient>
<clipPath id="clip0_5_239">
<rect width="1500" height="500" fill="white"/>
</clipPath>
</defs>
</svg>